<svg width="1266" height="465" viewBox="0 0 1266 465" fill="none" xmlns="http://www.w3.org/2000/svg">
<g filter="url(#filter0_d)">
<path d="M325.25 377.9V244.9C325.25 236.733 325.483 227.983 325.95 218.65C326.65 209.083 327.583 199.167 328.75 188.9L194 377.9H325.25ZM472.25 377.9V438.8C472.25 444.167 470.383 448.833 466.65 452.8C463.15 456.767 458.017 458.75 451.25 458.75H419.75V576H325.25V458.75H120.15C113.383 458.75 107.2 456.65 101.6 452.45C96.2333 448.25 92.85 443 91.45 436.7L80.25 383.15L316.15 66.05H419.75V377.9H472.25ZM880.055 320.85C880.055 365.417 875.271 404.033 865.705 436.7C856.138 469.367 842.838 496.433 825.805 517.9C809.005 539.367 788.938 555.35 765.605 565.85C742.505 576.35 717.421 581.6 690.355 581.6C663.288 581.6 638.205 576.35 615.105 565.85C592.238 555.35 572.405 539.367 555.605 517.9C538.805 496.433 525.621 469.367 516.055 436.7C506.721 404.033 502.055 365.417 502.055 320.85C502.055 276.283 506.721 237.667 516.055 205C525.621 172.333 538.805 145.267 555.605 123.8C572.405 102.333 592.238 86.4666 615.105 76.2C638.205 65.7 663.288 60.45 690.355 60.45C717.421 60.45 742.505 65.7 765.605 76.2C788.938 86.4666 809.005 102.333 825.805 123.8C842.838 145.267 856.138 172.333 865.705 205C875.271 237.667 880.055 276.283 880.055 320.85ZM768.055 320.85C768.055 285.617 765.838 256.8 761.405 234.4C756.971 211.767 751.021 194.033 743.555 181.2C736.321 168.367 728.038 159.617 718.705 154.95C709.371 150.05 699.921 147.6 690.355 147.6C680.788 147.6 671.338 150.05 662.005 154.95C652.905 159.617 644.738 168.367 637.505 181.2C630.505 194.033 624.788 211.767 620.355 234.4C616.155 256.8 614.055 285.617 614.055 320.85C614.055 356.317 616.155 385.25 620.355 407.65C624.788 430.05 630.505 447.783 637.505 460.85C644.738 473.683 652.905 482.55 662.005 487.45C671.338 492.117 680.788 494.45 690.355 494.45C699.921 494.45 709.371 492.117 718.705 487.45C728.038 482.55 736.321 473.683 743.555 460.85C751.021 447.783 756.971 430.05 761.405 407.65C765.838 385.25 768.055 356.317 768.055 320.85ZM1137.36 377.9V244.9C1137.36 236.733 1137.59 227.983 1138.06 218.65C1138.76 209.083 1139.69 199.167 1140.86 188.9L1006.11 377.9H1137.36ZM1284.36 377.9V438.8C1284.36 444.167 1282.49 448.833 1278.76 452.8C1275.26 456.767 1270.13 458.75 1263.36 458.75H1231.86V576H1137.36V458.75H932.259C925.493 458.75 919.309 456.65 913.709 452.45C908.343 448.25 904.959 443 903.559 436.7L892.359 383.15L1128.26 66.05H1231.86V377.9H1284.36ZM1692.16 320.85C1692.16 365.417 1687.38 404.033 1677.81 436.7C1668.25 469.367 1654.95 496.433 1637.91 517.9C1621.11 539.367 1601.05 555.35 1577.71 565.85C1554.61 576.35 1529.53 581.6 1502.46 581.6C1475.4 581.6 1450.31 576.35 1427.21 565.85C1404.35 555.35 1384.51 539.367 1367.71 517.9C1350.91 496.433 1337.73 469.367 1328.16 436.7C1318.83 404.033 1314.16 365.417 1314.16 320.85C1314.16 276.283 1318.83 237.667 1328.16 205C1337.73 172.333 1350.91 145.267 1367.71 123.8C1384.51 102.333 1404.35 86.4666 1427.21 76.2C1450.31 65.7 1475.4 60.45 1502.46 60.45C1529.53 60.45 1554.61 65.7 1577.71 76.2C1601.05 86.4666 1621.11 102.333 1637.91 123.8C1654.95 145.267 1668.25 172.333 1677.81 205C1687.38 237.667 1692.16 276.283 1692.16 320.85ZM1580.16 320.85C1580.16 285.617 1577.95 256.8 1573.51 234.4C1569.08 211.767 1563.13 194.033 1555.66 181.2C1548.43 168.367 1540.15 159.617 1530.81 154.95C1521.48 150.05 1512.03 147.6 1502.46 147.6C1492.9 147.6 1483.45 150.05 1474.11 154.95C1465.01 159.617 1456.85 168.367 1449.61 181.2C1442.61 194.033 1436.9 211.767 1432.46 234.4C1428.26 256.8 1426.16 285.617 1426.16 320.85C1426.16 356.317 1428.26 385.25 1432.46 407.65C1436.9 430.05 1442.61 447.783 1449.61 460.85C1456.85 473.683 1465.01 482.55 1474.11 487.45C1483.45 492.117 1492.9 494.45 1502.46 494.45C1512.03 494.45 1521.48 492.117 1530.81 487.45C1540.15 482.55 1548.43 473.683 1555.66 460.85C1563.13 447.783 1569.08 430.05 1573.51 407.65C1577.95 385.25 1580.16 356.317 1580.16 320.85ZM2098.22 320.85C2098.22 365.417 2093.44 404.033 2083.87 436.7C2074.3 469.367 2061 496.433 2043.97 517.9C2027.17 539.367 2007.1 555.35 1983.77 565.85C1960.67 576.35 1935.59 581.6 1908.52 581.6C1881.45 581.6 1856.37 576.35 1833.27 565.85C1810.4 555.35 1790.57 539.367 1773.77 517.9C1756.97 496.433 1743.79 469.367 1734.22 436.7C1724.89 404.033 1720.22 365.417 1720.22 320.85C1720.22 276.283 1724.89 237.667 1734.22 205C1743.79 172.333 1756.97 145.267 1773.77 123.8C1790.57 102.333 1810.4 86.4666 1833.27 76.2C1856.37 65.7 1881.45 60.45 1908.52 60.45C1935.59 60.45 1960.67 65.7 1983.77 76.2C2007.1 86.4666 2027.17 102.333 2043.97 123.8C2061 145.267 2074.3 172.333 2083.87 205C2093.44 237.667 2098.22 276.283 2098.22 320.85ZM1986.22 320.85C1986.22 285.617 1984 256.8 1979.57 234.4C1975.14 211.767 1969.19 194.033 1961.72 181.2C1954.49 168.367 1946.2 159.617 1936.87 154.95C1927.54 150.05 1918.09 147.6 1908.52 147.6C1898.95 147.6 1889.5 150.05 1880.17 154.95C1871.07 159.617 1862.9 168.367 1855.67 181.2C1848.67 194.033 1842.95 211.767 1838.52 234.4C1834.32 256.8 1832.22 285.617 1832.22 320.85C1832.22 356.317 1834.32 385.25 1838.52 407.65C1842.95 430.05 1848.67 447.783 1855.67 460.85C1862.9 473.683 1871.07 482.55 1880.17 487.45C1889.5 492.117 1898.95 494.45 1908.52 494.45C1918.09 494.45 1927.54 492.117 1936.87 487.45C1946.2 482.55 1954.49 473.683 1961.72 460.85C1969.19 447.783 1975.14 430.05 1979.57 407.65C1984 385.25 1986.22 356.317 1986.22 320.85Z" fill="white"/>
</g>
<defs>
<filter id="filter0_d" x="0.25" y="0.450195" width="2177.97" height="681.15" filterUnits="userSpaceOnUse" color-interpolation-filters="sRGB">
<feFlood flood-opacity="0" result="BackgroundImageFix"/>
<feColorMatrix in="SourceAlpha" type="matrix" values="0 0 0 0 0 0 0 0 0 0 0 0 0 0 0 0 0 0 127 0"/>
<feOffset dy="20"/>
<feGaussianBlur stdDeviation="40"/>
<feColorMatrix type="matrix" values="0 0 0 0 0 0 0 0 0 0 0 0 0 0 0 0 0 0 0.05 0"/>
<feBlend mode="normal" in2="BackgroundImageFix" result="effect1_dropShadow"/>
<feBlend mode="normal" in="SourceGraphic" in2="effect1_dropShadow" result="shape"/>
</filter>
</defs>
</svg>
