<svg width="24" height="23" viewBox="0 0 24 23" fill="none" xmlns="http://www.w3.org/2000/svg">
<path d="M11.1937 0.538032C11.492 -0.17916 12.508 -0.179163 12.8063 0.538029L15.4908 6.99237C15.6165 7.29472 15.9009 7.5013 16.2273 7.52747L23.1953 8.08609C23.9695 8.14816 24.2835 9.11442 23.6936 9.61974L18.3847 14.1674C18.136 14.3804 18.0274 14.7147 18.1034 15.0332L19.7253 21.8328C19.9056 22.5883 19.0836 23.1855 18.4207 22.7806L12.4552 19.1369C12.1757 18.9662 11.8242 18.9662 11.5448 19.1369L5.57922 22.7806C4.91633 23.1855 4.09439 22.5883 4.27461 21.8328L5.89656 15.0332C5.97254 14.7147 5.86393 14.3804 5.61524 14.1674L0.306364 9.61974C-0.283547 9.11442 0.0304063 8.14816 0.804675 8.08609L7.77268 7.52747C8.09909 7.5013 8.38342 7.29472 8.50918 6.99237L11.1937 0.538032Z" fill="#F6A623"/>
</svg>
