<svg width="124" height="124" viewBox="0 0 124 124" fill="none" xmlns="http://www.w3.org/2000/svg">
<circle cx="62" cy="62" r="62" fill="#C9CBCD"/>
<path d="M62.0884 73.999C68.9715 73.999 74.5513 68.4025 74.5513 61.4988C74.5513 54.5951 68.9715 48.9986 62.0884 48.9986C55.2053 48.9986 49.6255 54.5951 49.6255 61.4988C49.6255 68.4025 55.2053 73.999 62.0884 73.999Z" fill="white"/>
<path d="M87.0149 41.4996H79.11C78.1108 41.4996 77.1724 41.109 76.4653 40.401L71.9086 35.8306C70.7317 34.6502 69.1665 33.9995 67.5015 33.9995H56.6768C55.0118 33.9995 53.4466 34.6502 52.2697 35.8306L47.713 40.401C47.0059 41.109 46.0675 41.4996 45.0683 41.4996H37.1634C34.4139 41.4996 32.1782 43.742 32.1782 46.4996V78.9999C32.1782 81.7575 34.4139 84 37.1634 84H87.015C89.7644 84 92.0002 81.7576 92.0002 78.9999V46.4996C92.0001 43.742 89.7644 41.4996 87.0149 41.4996ZM62.0892 76.4999C53.8423 76.4999 47.1337 69.7713 47.1337 61.4998C47.1337 53.2282 53.8423 46.4996 62.0892 46.4996C70.336 46.4996 77.0446 53.2282 77.0446 61.4998C77.0446 69.7713 70.336 76.4999 62.0892 76.4999ZM82.0298 53.9997C80.6558 53.9997 79.5373 52.8778 79.5373 51.4997C79.5373 50.1216 80.6558 48.9997 82.0298 48.9997C83.4039 48.9997 84.5224 50.1216 84.5224 51.4997C84.5224 52.8778 83.4039 53.9997 82.0298 53.9997Z" fill="white"/>
<path d="M32.934 103.089V93.0094H34.166V97.3214H39.01V93.0094H40.242V103.089H39.01V98.3994H34.166V103.089H32.934ZM45.4368 96.7054C44.8768 96.7054 44.4148 96.9014 44.0508 97.2934C43.6868 97.6761 43.4674 98.2221 43.3928 98.9314H47.2008C47.1914 98.1847 47.0281 97.6294 46.7108 97.2654C46.3934 96.8921 45.9688 96.7054 45.4368 96.7054ZM48.3208 99.7854H43.3928C43.4301 100.635 43.6448 101.269 44.0368 101.689C44.4381 102.1 44.9748 102.305 45.6468 102.305C46.3188 102.305 47.0514 102.077 47.8448 101.619L48.1528 102.529C47.3594 103.015 46.4728 103.257 45.4928 103.257C44.4754 103.257 43.6681 102.945 43.0708 102.319C42.4734 101.694 42.1748 100.798 42.1748 99.6314C42.1748 98.4181 42.4828 97.4754 43.0988 96.8034C43.7241 96.1221 44.5174 95.7814 45.4788 95.7814C46.3654 95.7814 47.0654 96.0754 47.5788 96.6634C48.0921 97.2514 48.3488 98.0961 48.3488 99.1974C48.3488 99.4494 48.3394 99.6454 48.3208 99.7854ZM49.2906 96.9294V95.9494H55.4646V96.9294H52.9726V103.089H51.7826V96.9294H49.2906ZM63.374 106.029V103.229C62.2354 103.145 61.3114 102.791 60.602 102.165C59.8927 101.54 59.538 100.667 59.538 99.5474C59.538 98.4274 59.8927 97.5501 60.602 96.9154C61.3114 96.2807 62.2354 95.9121 63.374 95.8094V93.0094H64.55V95.8094C65.6887 95.9027 66.6127 96.2621 67.322 96.8874C68.0314 97.5034 68.386 98.3714 68.386 99.4914C68.386 100.611 68.0314 101.493 67.322 102.137C66.6127 102.772 65.6887 103.136 64.55 103.229V106.029H63.374ZM61.428 97.5734C60.952 98.0307 60.714 98.6841 60.714 99.5334C60.714 100.383 60.952 101.036 61.428 101.493C61.9134 101.951 62.562 102.226 63.374 102.319V96.7474C62.562 96.8407 61.9134 97.1161 61.428 97.5734ZM66.482 101.493C66.9674 101.036 67.21 100.383 67.21 99.5334C67.21 98.6841 66.9674 98.0307 66.482 97.5734C65.9967 97.1161 65.3527 96.8407 64.55 96.7474V102.319C65.3527 102.226 65.9967 101.951 66.482 101.493ZM76.1779 99.4914C76.1779 100.723 75.8699 101.661 75.2539 102.305C74.6379 102.94 73.8586 103.257 72.9159 103.257C71.9826 103.257 71.2126 102.945 70.6059 102.319C70.0086 101.685 69.7099 100.761 69.7099 99.5474C69.7099 98.3154 70.0179 97.3821 70.6339 96.7474C71.2499 96.1034 72.0293 95.7814 72.9719 95.7814C73.9053 95.7814 74.6706 96.0987 75.2679 96.7334C75.8746 97.3587 76.1779 98.2781 76.1779 99.4914ZM74.4139 101.633C74.7873 101.176 74.9739 100.476 74.9739 99.5334C74.9739 98.5907 74.7873 97.8907 74.4139 97.4334C74.0406 96.9761 73.5506 96.7474 72.9439 96.7474C72.3373 96.7474 71.8473 96.9761 71.4739 97.4334C71.1006 97.8907 70.9139 98.5907 70.9139 99.5334C70.9139 100.476 71.1006 101.176 71.4739 101.633C71.8473 102.091 72.3373 102.319 72.9439 102.319C73.5506 102.319 74.0406 102.091 74.4139 101.633ZM77.1675 96.9294V95.9494H83.3415V96.9294H80.8495V103.089H79.6595V96.9294H77.1675ZM90.8068 99.4914C90.8068 100.723 90.4988 101.661 89.8828 102.305C89.2668 102.94 88.4875 103.257 87.5448 103.257C86.6115 103.257 85.8415 102.945 85.2348 102.319C84.6375 101.685 84.3388 100.761 84.3388 99.5474C84.3388 98.3154 84.6468 97.3821 85.2628 96.7474C85.8788 96.1034 86.6582 95.7814 87.6008 95.7814C88.5342 95.7814 89.2995 96.0987 89.8968 96.7334C90.5035 97.3587 90.8068 98.2781 90.8068 99.4914ZM89.0428 101.633C89.4162 101.176 89.6028 100.476 89.6028 99.5334C89.6028 98.5907 89.4162 97.8907 89.0428 97.4334C88.6695 96.9761 88.1795 96.7474 87.5728 96.7474C86.9662 96.7474 86.4762 96.9761 86.1028 97.4334C85.7295 97.8907 85.5428 98.5907 85.5428 99.5334C85.5428 100.476 85.7295 101.176 86.1028 101.633C86.4762 102.091 86.9662 102.319 87.5728 102.319C88.1795 102.319 88.6695 102.091 89.0428 101.633Z" fill="white"/>
</svg>
