<svg width="56" height="56" fill="none" xmlns="http://www.w3.org/2000/svg"><rect width="56" height="56" rx="6" fill="url(#paint0_linear)"/><mask id="a" maskUnits="userSpaceOnUse" x="17" y="14" width="23" height="28" fill="#000"><path fill="#fff" d="M17 14h23v28H17z"/><path fill-rule="evenodd" clip-rule="evenodd" d="M23.005 31.545h7.508c4.83 0 8.76-3.71 8.76-8.272S35.343 15 30.513 15H22.38c-.346 0-.626.264-.626.59v14.774h-3.128c-.346 0-.626.264-.626.59 0 .327.28.591.626.591h3.128v3.546h-3.128c-.346 0-.626.265-.626.59 0 .327.28.592.626.592h3.128v4.136c0 .326.28.591.626.591.345 0 .625-.265.625-.59v-4.137h10.01c.346 0 .627-.265.627-.591 0-.326-.28-.591-.626-.591h-10.01v-3.546zm7.508-1.181h-7.508V16.182h7.508c4.14 0 7.508 3.18 7.508 7.09 0 3.91-3.368 7.092-7.508 7.092z"/></mask><path fill-rule="evenodd" clip-rule="evenodd" d="M23.005 31.545h7.508c4.83 0 8.76-3.71 8.76-8.272S35.343 15 30.513 15H22.38c-.346 0-.626.264-.626.59v14.774h-3.128c-.346 0-.626.264-.626.59 0 .327.28.591.626.591h3.128v3.546h-3.128c-.346 0-.626.265-.626.59 0 .327.28.592.626.592h3.128v4.136c0 .326.28.591.626.591.345 0 .625-.265.625-.59v-4.137h10.01c.346 0 .627-.265.627-.591 0-.326-.28-.591-.626-.591h-10.01v-3.546zm7.508-1.181h-7.508V16.182h7.508c4.14 0 7.508 3.18 7.508 7.09 0 3.91-3.368 7.092-7.508 7.092z" fill="#152242"/><path d="M23.005 31.545v-.4h-.4v.4h.4zm-1.25-1.181v.4h.4v-.4h-.4zm0 1.181h.4v-.4h-.4v.4zm0 3.546v.4h.4v-.4h-.4zm0 1.182h.4v-.4h-.4v.4zm1.25 0v-.4h-.4v.4h.4zm0-1.182h-.4v.4h.4v-.4zm0-4.727h-.4v.4h.4v-.4zm0-14.182v-.4h-.4v.4h.4zm7.508 14.963h-7.508v.8h7.508v-.8zm8.36-7.872c0 4.32-3.729 7.872-8.36 7.872v.8c5.03 0 9.16-3.869 9.16-8.672h-.8zm-8.36-7.873c4.631 0 8.36 3.553 8.36 7.873h.8c0-4.804-4.13-8.673-9.16-8.673v.8zm-8.133 0h8.133v-.8H22.38v.8zm-.226.19c0-.083.08-.19.226-.19v-.8c-.545 0-1.026.422-1.026.99h.8zm0 14.774V15.59h-.8v14.773h.8zm-3.528.4h3.128v-.8h-3.128v.8zm-.226.19c0-.084.08-.19.226-.19v-.8c-.545 0-1.026.422-1.026.99h.8zm.226.191c-.147 0-.226-.106-.226-.19h-.8c0 .568.481.99 1.026.99v-.8zm3.128 0h-3.128v.8h3.128v-.8zm.4 3.946v-3.546h-.8v3.546h.8zm-3.528.4h3.128v-.8h-3.128v.8zm-.226.19c0-.083.08-.19.226-.19v-.8c-.545 0-1.026.422-1.026.99h.8zm.226.192c-.147 0-.226-.107-.226-.191h-.8c0 .568.481.99 1.026.99v-.8zm3.128 0h-3.128v.8h3.128v-.8zm.4 4.536v-4.136h-.8v4.136h.8zm.226.191c-.147 0-.226-.107-.226-.19h-.8c0 .568.481.99 1.026.99v-.8zm.225-.19c0 .083-.079.19-.225.19v.8c.544 0 1.025-.422 1.025-.99h-.8zm0-4.137v4.136h.8v-4.136h-.8zm10.41-.4h-10.01v.8h10.01v-.8zm.227-.191c0 .084-.08.19-.226.19v.8c.544 0 1.026-.422 1.026-.99h-.8zm-.226-.191c.146 0 .226.107.226.19h.8c0-.567-.482-.99-1.026-.99v.8zm-10.01 0h10.01v-.8h-10.01v.8zm-.4-3.946v3.546h.8v-3.546h-.8zm.4-.781h7.507v-.8h-7.508v.8zm-.4-14.582v14.182h.8V16.182h-.8zm7.907-.4h-7.508v.8h7.508v-.8zm7.908 7.49c0-4.151-3.569-7.49-7.908-7.49v.8c3.941 0 7.108 3.023 7.108 6.69h.8zm-7.908 7.492c4.34 0 7.908-3.34 7.908-7.491h-.8c0 3.668-3.167 6.69-7.108 6.69v.8z" fill="#152242" mask="url(#a)"/><defs><linearGradient id="paint0_linear" x1="56" y1="56" x2="0" y2="0" gradientUnits="userSpaceOnUse"><stop stop-color="#C1EAFF"/><stop offset="1" stop-color="#FFECB0"/></linearGradient></defs></svg>