<svg width="56" height="56" fill="none" xmlns="http://www.w3.org/2000/svg"><rect width="56" height="56" rx="6" fill="url(#paint0_linear)"/><path d="M15.466 18.287c0-.217.176-.394.393-.394h7.338c.475 0 .906-.28 1.098-.715 0 0 0 0 0 0l.49-1.106a3.48 3.48 0 016.468.262l.267.769c.165.473.612.79 1.113.79h7.508c.217 0 .393.177.393.394v23.32a.394.394 0 01-.393.393H15.859a.394.394 0 01-.393-.394v-23.32z" stroke="#152242" stroke-width="2"/><circle cx="28" cy="26.274" r="3.723" stroke="#152242" stroke-width="2"/><path d="M20.947 37.575a6.097 6.097 0 016.014-5.096h2.077a6.098 6.098 0 016.014 5.096H20.947z" stroke="#152242" stroke-width="2"/><defs><linearGradient id="paint0_linear" x1="0" y1="0" x2="56" y2="56" gradientUnits="userSpaceOnUse"><stop stop-color="#FFDDC9"/><stop offset="1" stop-color="#C1E8FD"/></linearGradient></defs></svg>