<svg width="57" height="56" viewBox="0 0 57 56" fill="none" xmlns="http://www.w3.org/2000/svg">
<rect x="0.875" width="56" height="56" rx="8" fill="url(#paint0_linear_3575_61291)"/>
<mask id="path-2-inside-1_3575_61291" fill="white">
<path fill-rule="evenodd" clip-rule="evenodd" d="M13.8164 29.1971C13.7626 29.7882 13.9742 30.3726 14.3939 30.7923L26.4595 42.8579C28.0216 44.42 30.5542 44.42 32.1163 42.8579L43.43 31.5442C44.9921 29.9821 44.9921 27.4494 43.43 25.8873L31.3645 13.8218C30.9448 13.4021 30.3603 13.1905 29.7692 13.2442L16.8056 14.4227C15.8441 14.5101 15.0823 15.2719 14.9949 16.2334L13.8164 29.1971ZM21.8659 21.0091C20.7339 22.1411 20.7339 23.9765 21.8659 25.1085C22.9979 26.2406 24.8333 26.2406 25.9654 25.1085C27.0974 23.9765 27.0974 22.1411 25.9654 21.0091C24.8333 19.877 22.9979 19.877 21.8659 21.0091Z"/>
</mask>
<path d="M13.8164 29.1971L11.8246 29.016L11.8246 29.016L13.8164 29.1971ZM29.7692 13.2442L29.5881 11.2524H29.5881L29.7692 13.2442ZM16.8056 14.4227L16.9867 16.4145L16.9867 16.4145L16.8056 14.4227ZM14.9949 16.2334L16.9867 16.4145L16.9867 16.4145L14.9949 16.2334ZM15.8081 29.3781L15.8081 29.3781L11.8246 29.016C11.7171 30.1982 12.1403 31.3671 12.9797 32.2065L15.8081 29.3781ZM27.8737 41.4437L15.8081 29.3781L12.9797 32.2065L25.0453 44.2721L27.8737 41.4437ZM30.7021 41.4437C29.9211 42.2247 28.6547 42.2247 27.8737 41.4437L25.0453 44.2721C27.3884 46.6152 31.1874 46.6152 33.5305 44.2721L30.7021 41.4437ZM42.0158 30.13L30.7021 41.4437L33.5305 44.2721L44.8442 32.9584L42.0158 30.13ZM42.0158 27.3015C42.7969 28.0826 42.7969 29.3489 42.0158 30.13L44.8442 32.9584C47.1874 30.6152 47.1874 26.8162 44.8442 24.4731L42.0158 27.3015ZM29.9503 15.236L42.0158 27.3015L44.8442 24.4731L32.7787 12.4076L29.9503 15.236ZM29.9503 15.236L29.9503 15.236L32.7787 12.4076C31.9393 11.5681 30.7704 11.1449 29.5881 11.2524L29.9503 15.236ZM16.9867 16.4145L29.9503 15.236L29.5881 11.2524L16.6245 12.4309L16.9867 16.4145ZM16.9867 16.4145L16.9867 16.4145L16.6245 12.4309C14.7015 12.6057 13.1779 14.1293 13.0031 16.0524L16.9867 16.4145ZM15.8081 29.3781L16.9867 16.4145L13.0031 16.0524L11.8246 29.016L15.8081 29.3781ZM23.2801 23.6943C22.9291 23.3433 22.9291 22.7743 23.2801 22.4233L20.4517 19.5949C18.5386 21.5079 18.5386 24.6097 20.4517 26.5228L23.2801 23.6943ZM24.5512 23.6943C24.2002 24.0453 23.6311 24.0453 23.2801 23.6943L20.4517 26.5228C22.3648 28.4359 25.4665 28.4359 27.3796 26.5228L24.5512 23.6943ZM24.5512 22.4233C24.9022 22.7743 24.9022 23.3433 24.5512 23.6943L27.3796 26.5228C29.2927 24.6097 29.2927 21.5079 27.3796 19.5949L24.5512 22.4233ZM23.2801 22.4233C23.6311 22.0723 24.2002 22.0723 24.5512 22.4233L27.3796 19.5949C25.4665 17.6818 22.3648 17.6818 20.4517 19.5949L23.2801 22.4233Z" fill="black" mask="url(#path-2-inside-1_3575_61291)"/>
<defs>
<linearGradient id="paint0_linear_3575_61291" x1="0.875" y1="0" x2="56.875" y2="56" gradientUnits="userSpaceOnUse">
<stop stop-color="#FFE1FF"/>
<stop offset="1" stop-color="#FFECB0"/>
</linearGradient>
</defs>
</svg>
