<svg width="56" height="56" fill="none" xmlns="http://www.w3.org/2000/svg"><rect width="56" height="56" rx="12" fill="url(#a)"/><path fill-rule="evenodd" clip-rule="evenodd" d="M27.155 12.878V12h1.705v.878h.573a1.705 1.705 0 0 1 1.618 2.245l-.686 2.056h-4.69l-.685-2.056a1.705 1.705 0 0 1 1.618-2.245h.547Zm0 1.705h-.547l.296.89h2.232l.297-.89h-.573v.013h-1.705v-.013ZM36.878 39.246a2.584 2.584 0 1 1 1.252 2.632l-.006.01-6.579-3.65.828-1.492 4.505 2.5Zm2.552-.479a.878.878 0 1 0 0 1.756.878.878 0 0 0 0-1.756Z" fill="#152242"/><path d="m17.414 40.282-4.265-5.018 1.3-1.105 4.482 5.275 4.631-2.588.832 1.489-4.337 2.423.826.972-1.3 1.105-1.043-1.229-1.5.839-.832-1.489 1.206-.674Z" fill="#152242"/><path d="M20.264 36.431a3.488 3.488 0 0 1 3.405-2.788 3.474 3.474 0 0 1 3.474 3.473v1.953l-2.231 2.174c1.733 1.408 4.47 1.397 6.213-.004l-2.227-2.17v-2.045c0-1.888 1.565-3.381 3.448-3.381.9 0 1.65.271 2.24.794.568.504.922 1.184 1.163 1.89l-1.614.552c-.191-.56-.418-.933-.681-1.166-.242-.215-.574-.365-1.108-.365-.983 0-1.742.771-1.742 1.676v1.326l2.91 2.835-.52.608c-2.498 2.92-7.442 2.967-9.951-.005l-.512-.606 2.906-2.832v-1.234c0-.976-.791-1.768-1.768-1.768-.834 0-1.565.598-1.735 1.426l-1.67-.343Z" fill="#152242"/><path d="m20.666 19.787-.585-.62-1.457 1.374 2 .098c.42.02.776.068 1.079.14a4.652 4.652 0 0 1-1.141.96l-.003.001.002-.001.402.752.403.751h.002l.002-.002.006-.003.018-.01a3.276 3.276 0 0 0 .24-.146c.151-.097.357-.24.585-.429.294-.242.64-.57.956-.984.354.511.532 1.286.532 2.445v.432c0 .921-.045 1.53-.366 1.94-.388.497-1.007.683-1.735.472-.744-.215-1.47-1.459-.4-2.709l-.54-.462-5.795-5.313-.547.854c-1.749 2.733-2.207 6.042-1.516 8.793.693 2.758 2.594 5.077 5.621 5.49 1.843.251 3.297-.107 4.3-.54.5-.217.886-.451 1.152-.636a4.883 4.883 0 0 0 .398-.308l.01-.01.017-.014.009-.009.003-.003.003-.002-.585-.62-.585-.621.002-.002.001-.001.001-.001-.005.005-.042.035a3.153 3.153 0 0 1-.201.15c-.186.13-.473.306-.855.471-.758.328-1.9.62-3.392.416-2.15-.293-3.623-1.929-4.198-4.216-.505-2.009-.277-4.427.792-6.566l3.834 3.515c-.482 1.751.488 3.493 2.044 3.943 1.278.369 2.664.077 3.553-1.06.728-.931.728-2.142.727-2.946v-.477c0-1.356-.208-2.643-.982-3.613a3.714 3.714 0 0 0-1.45-1.092c.248-.075.503-.12.756-.12 1.632 0 3.396 1.54 3.432 4.726v1.829h1.706v-1.83c.036-3.186 1.8-4.725 3.432-4.725.266 0 .54.05.807.132a3.838 3.838 0 0 0-1.444 1.067c-.802.967-1.04 2.255-1.04 3.626v.477c0 .804 0 2.015.728 2.946.89 1.137 2.275 1.429 3.553 1.06 1.556-.45 2.526-2.192 2.044-3.943l3.834-3.515c1.069 2.14 1.297 4.557.792 6.566-.575 2.287-2.047 3.923-4.198 4.216-1.493.204-2.634-.088-3.392-.416a4.948 4.948 0 0 1-.855-.47 3.153 3.153 0 0 1-.243-.186l-.005-.005.002.002.001.001s.001.001-.584.621l-.585.62.002.003.004.003.01.009.026.024.088.074c.074.06.177.141.31.234.266.185.652.419 1.151.635 1.003.434 2.458.792 4.3.54 3.028-.412 4.929-2.73 5.622-5.49.691-2.75.233-6.06-1.516-8.792l-.547-.854-5.795 5.314-.54.461c1.07 1.25.344 2.494-.4 2.71-.728.21-1.347.024-1.736-.473-.32-.41-.365-1.019-.365-1.94v-.432c0-1.133.19-1.903.554-2.416a6.353 6.353 0 0 0 1.759 1.53l.018.01.006.003.002.001.001.001.403-.751.403-.752h.001-.002l-.026-.016a4.651 4.651 0 0 1-1.1-.927c.323-.08.705-.136 1.158-.157l2.093-.102-1.57-1.389-.565.639.566-.639-.004-.003-.006-.005-.02-.017a6.455 6.455 0 0 0-.289-.23 7.89 7.89 0 0 0-.79-.52c-.64-.37-1.585-.79-2.621-.79-1.826 0-3.379 1.056-4.285 2.786-.907-1.73-2.46-2.787-4.285-2.787-1.04 0-1.965.424-2.588.798a7.244 7.244 0 0 0-1.039.76l-.018.017-.006.006-.002.002h-.001c0 .001-.001.002.584.622Z" fill="#152242"/><defs><linearGradient id="a" x1="0" y1="0" x2="56" y2="56" gradientUnits="userSpaceOnUse"><stop stop-color="#FFE1FF"/><stop offset="1" stop-color="#FFECB0"/></linearGradient></defs></svg>