<svg width="56" height="56" fill="none" xmlns="http://www.w3.org/2000/svg"><rect width="56" height="56" rx="6" fill="url(#paint0_linear)"/><path fill-rule="evenodd" clip-rule="evenodd" d="M20.914 25.705c.24.032.48.048.72.048a5.512 5.512 0 003.918-1.658 5.997 5.997 0 001.709-4.034 6.028 6.028 0 00-1.462-4.138 5.543 5.543 0 00-3.81-1.911 5.482 5.482 0 00-4.01 1.392 5.961 5.961 0 00-1.953 3.911 6.055 6.055 0 001.204 4.227 5.58 5.58 0 003.684 2.163zm-2.545-6.246a3.478 3.478 0 011.002-2.056 3.217 3.217 0 012.024-.926 3.182 3.182 0 012.128.624 3.427 3.427 0 011.266 1.89c.2.765.139 1.578-.172 2.3a3.364 3.364 0 01-1.53 1.665c-.68.353-1.455.45-2.195.273a3.27 3.27 0 01-1.863-1.241 3.538 3.538 0 01-.66-2.529zm-1.477 16.948a1.132 1.132 0 001.638.217l19.394-15.666c.122-.097.225-.22.302-.358a1.254 1.254 0 00.117-.929c-.04-.155-.11-.3-.204-.427a1.183 1.183 0 00-.346-.313 1.134 1.134 0 00-.89-.115 1.15 1.15 0 00-.409.216L17.1 34.699a1.257 1.257 0 00-.209 1.709zm14.002-5.888a5.412 5.412 0 013.215-.568 5.422 5.422 0 012.084.716c.643.38 1.207.89 1.659 1.5.452.61.784 1.307.976 2.051.192.745.24 1.522.143 2.286a5.983 5.983 0 01-1.333 3.105 5.591 5.591 0 01-2.761 1.81 5.394 5.394 0 01-3.26-.097 5.629 5.629 0 01-2.659-1.97 6.012 6.012 0 01-1.161-3.18 6.068 6.068 0 01.726-3.316 5.724 5.724 0 012.37-2.337zm5.016 7.448a3.536 3.536 0 00.083-4.299 3.257 3.257 0 00-2.18-1.3 3.182 3.182 0 00-2.198.523c-.529.357-.948.866-1.207 1.467a3.559 3.559 0 00-.252 1.916c.095.65.367 1.26.784 1.753.418.494.962.851 1.57 1.03a3.15 3.15 0 001.854-.023 3.275 3.275 0 001.546-1.067z" fill="#152242"/><defs><linearGradient id="paint0_linear" x1="0" y1="0" x2="56" y2="56" gradientUnits="userSpaceOnUse"><stop stop-color="#FFE1FF"/><stop offset="1" stop-color="#FFECB0"/></linearGradient></defs></svg>