<svg width="56" height="56" fill="none" xmlns="http://www.w3.org/2000/svg"><rect width="56" height="56" rx="6" fill="url(#paint0_linear)"/><path fill-rule="evenodd" clip-rule="evenodd" d="M34 26a1 1 0 01.094 1.411l-6.341 7.247a1 1 0 01-1.46.05L23 31.413A1 1 0 0124.414 30l2.537 2.537 5.638-6.443A1 1 0 0134 26z" fill="#152242"/><path d="M18 24v16h20V24" stroke="#152242" stroke-width="2" stroke-linejoin="round"/><path fill-rule="evenodd" clip-rule="evenodd" d="M27.895 15.203a1 1 0 011.237.022l12.724 10.368a1 1 0 11-1.263 1.55l-12.115-9.871-13.077 9.92a1 1 0 01-1.209-1.593l13.703-10.396z" fill="#152242"/><defs><linearGradient id="paint0_linear" x1="56" y1="56" x2="0" y2="0" gradientUnits="userSpaceOnUse"><stop stop-color="#FFDDC9"/><stop offset="1" stop-color="#C1EAFF"/></linearGradient></defs></svg>