<svg width="57" height="56" viewBox="0 0 57 56" fill="none" xmlns="http://www.w3.org/2000/svg">
<rect x="0.5" width="56" height="56" rx="6" fill="url(#paint0_linear_63_19491)"/>
<path fill-rule="evenodd" clip-rule="evenodd" d="M31.5177 21.0643C31.9333 21.4279 31.9754 22.0597 31.6117 22.4753L25.2702 29.7228C25.088 29.9311 24.8275 30.0545 24.5509 30.0637C24.2743 30.0729 24.0063 29.9671 23.8105 29.7714L20.5177 26.4785C20.1271 26.088 20.1271 25.4548 20.5177 25.0643V25.0643C20.9082 24.6737 21.5413 24.6737 21.9319 25.0643L24.4689 27.6013L30.1066 21.1583C30.4703 20.7427 31.102 20.7006 31.5177 21.0643V21.0643Z" fill="#152242"/>
<path fill-rule="evenodd" clip-rule="evenodd" d="M37.7471 21.0643C38.1628 21.4279 38.2049 22.0597 37.8412 22.4753L31.4997 29.7228C31.3175 29.9311 31.057 30.0545 30.7804 30.0637C30.5038 30.0729 30.2357 29.9671 30.04 29.7714L26.7471 26.4785C26.3566 26.088 26.3566 25.4548 26.7471 25.0643V25.0643C27.1377 24.6737 27.7708 24.6737 28.1614 25.0643L30.6984 27.6013L36.3361 21.1583C36.6997 20.7427 37.3315 20.7006 37.7471 21.0643V21.0643Z" fill="#152242"/>
<path d="M28.5 40.0297V41.0297C29.0523 41.0297 29.5 40.582 29.5 40.0297H28.5ZM21.199 39.0297C20.6468 39.0297 20.199 39.4775 20.199 40.0297C20.199 40.582 20.6468 41.0297 21.199 41.0297V39.0297ZM35.7712 41.0297C36.3235 41.0297 36.7712 40.582 36.7712 40.0297C36.7712 39.4775 36.3235 39.0297 35.7712 39.0297V41.0297ZM41.5 19.9697L40.5 19.9697L41.5 19.9697ZM41.5 31.0644L40.5 31.0644L41.5 31.0644ZM16.5 31.0644V19.9698H14.5V31.0644H16.5ZM19.5 16.9698L37.5 16.9697L37.5 14.9697L19.5 14.9698L19.5 16.9698ZM40.5 19.9697L40.5 31.0644L42.5 31.0644L42.5 19.9697L40.5 19.9697ZM37.5 34.0644H28.5V36.0644H37.5V34.0644ZM28.5 34.0644H19.5V36.0644H28.5V34.0644ZM27.5 35.0644V40.0297H29.5V35.0644H27.5ZM28.5 39.0297H21.199V41.0297H28.5V39.0297ZM21.199 41.0297H35.7712V39.0297H21.199V41.0297ZM37.5 16.9697C39.1569 16.9697 40.5 18.3129 40.5 19.9697L42.5 19.9697C42.5 17.2083 40.2615 14.9697 37.5 14.9697L37.5 16.9697ZM40.5 31.0644C40.5 32.7212 39.1569 34.0644 37.5 34.0644V36.0644C40.2614 36.0644 42.5 33.8258 42.5 31.0644L40.5 31.0644ZM14.5 31.0644C14.5 33.8258 16.7386 36.0644 19.5 36.0644V34.0644C17.8431 34.0644 16.5 32.7212 16.5 31.0644H14.5ZM16.5 19.9698C16.5 18.3129 17.8431 16.9698 19.5 16.9698L19.5 14.9698C16.7386 14.9698 14.5 17.2084 14.5 19.9698H16.5Z" fill="#152242"/>
<defs>
<linearGradient id="paint0_linear_63_19491" x1="0.5" y1="0" x2="56.5" y2="56" gradientUnits="userSpaceOnUse">
<stop stop-color="#FFDDC9"/>
<stop offset="1" stop-color="#C1E8FD"/>
</linearGradient>
</defs>
</svg>
