<svg width="56" height="56" fill="none" xmlns="http://www.w3.org/2000/svg"><rect width="56" height="56" rx="6" fill="url(#paint0_linear)"/><path fill-rule="evenodd" clip-rule="evenodd" d="M37.623 25.156h-6.779v-6.78a10.033 10.033 0 016.78 6.78zm1.306 2c.58 0 1.041-.492.951-1.064a12.029 12.029 0 00-9.972-9.972c-.572-.09-1.064.371-1.064.95v9.086a1 1 0 001 1h9.085z" fill="#152242"/><path fill-rule="evenodd" clip-rule="evenodd" d="M35.594 34.526l-.001.001c-.108.125-.24.258-.407.417l-.632.597c-.17.16-.31.285-.441.385a9.973 9.973 0 01-6.895 2.044c-4.846-.374-8.791-4.3-9.184-9.144l-1.993.162c.472 5.824 5.197 10.526 11.023 10.976 3.12.24 6.01-.715 8.268-2.452a7.83 7.83 0 00.595-.516l.631-.598a7.66 7.66 0 00.55-.565 11.988 11.988 0 002.772-5.956c.09-.572-.371-1.064-.95-1.064H27.187V17.071c0-.58-.491-1.041-1.063-.951-.317.05-.629.113-.937.187-5.58 1.346-9.641 6.583-9.146 12.68l1.993-.161a10.02 10.02 0 017.153-10.45v11.437a1 1 0 001 1h11.436a9.996 9.996 0 01-2.03 3.713z" fill="#152242"/><defs><linearGradient id="paint0_linear" x1="0" y1="0" x2="56" y2="56" gradientUnits="userSpaceOnUse"><stop stop-color="#FFE1FF"/><stop offset="1" stop-color="#FFECB0"/></linearGradient></defs></svg>