<svg width="56" height="56" fill="none" xmlns="http://www.w3.org/2000/svg"><rect width="56" height="56" rx="6" fill="url(#paint0_linear)"/><mask id="a" maskUnits="userSpaceOnUse" x="13" y="14" width="30" height="28" fill="#000"><path fill="#fff" d="M13 14h30v28H13z"/><path fill-rule="evenodd" clip-rule="evenodd" d="M18.69 15.574v4.117h-4.116c-.765 0-.765 1.197 0 1.197h4.117v4.104c0 .766 1.196.766 1.196 0v-4.105h4.105c.766 0 .766-1.196 0-1.196h-4.105v-4.117c0-.765-1.197-.765-1.197 0zm3.759 25.559l-3.165-3.165-3.165 3.165c-.55.539-1.389-.299-.85-.85l3.165-3.165-3.165-3.165c-.539-.55.3-1.4.85-.85l3.165 3.166 3.165-3.165c.55-.539 1.4.299.85.85l-3.165 3.164 3.164 3.165c.539.55-.299 1.4-.85.85zm18.977-20.246h-9.418c-.778 0-.766-1.196 0-1.196h9.418c.765 0 .765 1.197 0 1.197zM32.008 40.32h9.418c.765 0 .765-1.197 0-1.197h-9.418c-.766 0-.778 1.197 0 1.197zm9.418-5.014h-9.418c-.778 0-.766-1.197 0-1.197h9.418c.765 0 .765 1.197 0 1.197z"/></mask><path fill-rule="evenodd" clip-rule="evenodd" d="M18.69 15.574v4.117h-4.116c-.765 0-.765 1.197 0 1.197h4.117v4.104c0 .766 1.196.766 1.196 0v-4.105h4.105c.766 0 .766-1.196 0-1.196h-4.105v-4.117c0-.765-1.197-.765-1.197 0zm3.759 25.559l-3.165-3.165-3.165 3.165c-.55.539-1.389-.299-.85-.85l3.165-3.165-3.165-3.165c-.539-.55.3-1.4.85-.85l3.165 3.166 3.165-3.165c.55-.539 1.4.299.85.85l-3.165 3.164 3.164 3.165c.539.55-.299 1.4-.85.85zm18.977-20.246h-9.418c-.778 0-.766-1.196 0-1.196h9.418c.765 0 .765 1.197 0 1.197zM32.008 40.32h9.418c.765 0 .765-1.197 0-1.197h-9.418c-.766 0-.778 1.197 0 1.197zm9.418-5.014h-9.418c-.778 0-.766-1.197 0-1.197h9.418c.765 0 .765 1.197 0 1.197z" fill="#152242"/><path d="M18.69 19.69v.5h.5v-.5h-.5zm0 1.197h.5v-.5h-.5v.5zm1.197 0v-.5h-.5v.5h.5zm0-1.196h-.5v.5h.5v-.5zm-.603 18.277l.354-.354-.354-.353-.354.353.354.354zm3.165 3.165l-.354.353.354-.353zm-6.33 0l.35.358.003-.004-.353-.354zm-.85-.85l-.354-.353-.003.004.357.35zm3.165-3.165l.354.354.354-.354-.354-.353-.354.353zm-3.165-3.165l-.357.35.003.003.354-.353zm.85-.85l-.354.354.354-.354zm3.165 3.166l-.354.353.354.354.354-.354-.354-.353zm3.165-3.165l-.35-.358-.004.004.354.354zm.85.85l.353.353-.354-.354zm-3.165 3.164l-.354-.353-.353.353.353.354.354-.354zm3.164 3.165l.358-.35-.004-.004-.354.354zM19.191 19.69v-4.117h-1v4.117h1zm-4.617.5h4.117v-1h-4.117v1zm0 .197a.108.108 0 01-.044-.007.017.017 0 01-.006-.005.142.142 0 01-.024-.087c0-.048.016-.078.024-.087a.017.017 0 01.006-.005.108.108 0 01.044-.006v-1c-.334 0-.618.136-.81.362a1.135 1.135 0 00-.264.736c0 .25.08.52.263.736.193.226.477.363.811.363v-1zm4.117 0h-4.117v1h4.117v-1zm.5 4.604v-4.105h-1v4.105h1zm.196 0c0 .03-.005.042-.006.044a.017.017 0 01-.005.006.141.141 0 01-.087.024.141.141 0 01-.087-.024.015.015 0 01-.005-.006.107.107 0 01-.006-.044h-1c0 .334.136.618.362.811.215.184.485.263.736.263.25 0 .52-.08.736-.263.226-.193.362-.477.362-.811h-1zm0-4.105v4.105h1v-4.105h-1zm4.605-.5h-4.105v1h4.105v-1zm0-.196c.03 0 .042.005.044.006a.015.015 0 01.006.005.141.141 0 01.024.087.141.141 0 01-.024.087.015.015 0 01-.006.005.107.107 0 01-.044.006v1c.334 0 .618-.136.811-.362.184-.215.263-.485.263-.736 0-.25-.08-.52-.263-.736a1.045 1.045 0 00-.811-.362v1zm-4.105 0h4.105v-1h-4.105v1zm-.5-4.617v4.117h1v-4.117h-1zm-.197 0c0-.029.006-.041.007-.044a.017.017 0 01.005-.006.142.142 0 01.087-.024c.048 0 .078.016.087.024a.018.018 0 01.005.006c0 .003.006.015.006.044h1c0-.334-.136-.618-.362-.81a1.135 1.135 0 00-.736-.264c-.25 0-.52.08-.736.263a1.045 1.045 0 00-.363.811h1zm-.26 22.747l3.165 3.165.707-.707-3.164-3.165-.708.707zm-2.458 3.166l3.166-3.166-.708-.707-3.165 3.166.707.707zm-1.56-1.553a1.057 1.057 0 00-.313.829c.021.282.155.53.333.707.178.178.425.312.707.334.296.023.591-.08.83-.313l-.7-.715a.122.122 0 01-.04.029.026.026 0 01-.013.002.137.137 0 01-.077-.044.138.138 0 01-.043-.077l.001-.012a.12.12 0 01.03-.04l-.716-.7zm3.169-3.17l-3.166 3.166.708.707 3.165-3.165-.707-.707zm-3.166-2.458l3.166 3.166.707-.707-3.165-3.166-.708.707zm1.557-1.556a1.055 1.055 0 00-.83-.322 1.126 1.126 0 00-.711.335 1.14 1.14 0 00-.332.709c-.023.295.08.592.313.83l.714-.699a.12.12 0 01-.028-.04.03.03 0 01-.002-.014.144.144 0 01.044-.082c.033-.033.064-.041.074-.042l.01.001a.123.123 0 01.041.03l.707-.707zm3.166 3.165l-3.166-3.166-.707.708 3.165 3.165.708-.707zm2.457-3.165l-3.165 3.165.708.707 3.164-3.165-.707-.707zm1.557 1.557c.236-.236.344-.533.322-.83a1.126 1.126 0 00-.335-.711 1.14 1.14 0 00-.71-.332 1.06 1.06 0 00-.83.312l.7.715a.12.12 0 01.04-.029.03.03 0 01.014-.001.144.144 0 01.081.044.133.133 0 01.043.074c0 .004 0 .006-.002.01a.127.127 0 01-.03.04l.707.708zm-3.165 3.165l3.165-3.165-.707-.707-3.165 3.165.707.707zm3.165 2.457l-3.165-3.164-.707.707 3.165 3.164.707-.707zm-1.557 1.557c.237.236.533.344.831.322.285-.02.533-.156.71-.335.179-.18.311-.427.333-.71a1.06 1.06 0 00-.313-.83l-.715.7a.12.12 0 01.029.04.03.03 0 01.002.014.144.144 0 01-.045.081.133.133 0 01-.074.043.02.02 0 01-.01-.002.127.127 0 01-.04-.03l-.708.707zm9.913-20.098h9.418v-1h-9.418v1zm0-2.197a1.05 1.05 0 00-.811.36 1.136 1.136 0 00-.268.736c-.001.251.078.523.264.74.195.226.48.36.815.36v-1a.122.122 0 01-.05-.007.017.017 0 01-.006-.005.134.134 0 01-.023-.083c0-.048.017-.078.025-.088a.023.023 0 01.009-.006.11.11 0 01.045-.007v-1zm9.418 0h-9.418v1h9.418v-1zm0 2.197c.334 0 .618-.137.81-.363.185-.215.264-.485.264-.736 0-.25-.08-.52-.263-.736a1.045 1.045 0 00-.811-.362v1c.029 0 .041.005.044.006a.017.017 0 01.006.005.142.142 0 01.024.087.142.142 0 01-.024.087.017.017 0 01-.006.005.108.108 0 01-.044.006v1zm0 18.431h-9.418v1h9.418v-1zm0-.197c.029 0 .041.006.044.007a.017.017 0 01.006.005.142.142 0 01.024.087.142.142 0 01-.024.087.017.017 0 01-.006.005.108.108 0 01-.044.006v1c.334 0 .618-.136.81-.362.185-.216.264-.486.264-.736 0-.251-.08-.52-.263-.736a1.045 1.045 0 00-.811-.363v1zm-9.418 0h9.418v-1h-9.418v1zm0 .197a.122.122 0 01-.05-.007.017.017 0 01-.006-.006.134.134 0 01-.023-.083c0-.047.017-.077.025-.087a.023.023 0 01.009-.007.11.11 0 01.045-.007v-1a1.05 1.05 0 00-.811.361 1.136 1.136 0 00-.268.735c-.001.252.078.523.264.74.195.227.48.361.815.361v-1zm0-4.014h9.418v-1h-9.418v1zm0-2.197a1.05 1.05 0 00-.811.36 1.136 1.136 0 00-.268.736c-.001.252.078.523.264.74.195.227.48.361.815.361v-1a.122.122 0 01-.05-.007.018.018 0 01-.006-.006.134.134 0 01-.023-.083c0-.047.017-.077.025-.087a.022.022 0 01.009-.007.11.11 0 01.045-.007v-1zm9.418 0h-9.418v1h9.418v-1zm0 2.197c.334 0 .618-.136.81-.362.185-.216.264-.486.264-.736 0-.251-.08-.52-.263-.736a1.045 1.045 0 00-.811-.363v1c.029 0 .041.006.044.007a.018.018 0 01.006.005.141.141 0 01.024.087.141.141 0 01-.024.086.017.017 0 01-.006.006c-.002 0-.015.006-.044.006v1z" fill="#152242" mask="url(#a)"/><defs><linearGradient id="paint0_linear" x1="56" y1="56" x2="0" y2="0" gradientUnits="userSpaceOnUse"><stop stop-color="#C1EAFF"/><stop offset="1" stop-color="#FFECB0"/></linearGradient></defs></svg>