<svg xmlns="http://www.w3.org/2000/svg" fill="none" viewBox="0 0 48 48"><path fill="#EDEEEE" d="M24 47c12.703 0 23-10.297 23-23S36.703 1 24 1 1 11.297 1 24s10.297 23 23 23z"/><path fill="#fff" d="M39 12H11v22h28V12z"/><path fill="#B7B7B7" d="M28 16H14v1h14v-1zm-3 3H14v1h11v-1zm11 3H14v1h22v-1zm-14 3h-8v1h8v-1z"/><path fill="#D9D9DA" d="M16 34v-5h-1v5h1zm5 0v-5h-1v5h1zm5 0v-5h-1v5h1zm5 0v-5h-1v5h1zm4 0v-5h-1v5h1z"/><path fill="#B7B7B7" d="M36 19h-9v1h9v-1zm0-3h-6v1h6v-1z"/><path fill="#10A363" d="M38 47a9 9 0 1 0 0-18 9 9 0 0 0 0 18z"/><rect width="12" height="2" x="32" y="37" fill="#fff" rx="1"/><rect width="12" height="2" x="39" y="32" fill="#fff" rx="1" transform="rotate(90 39 32)"/></svg>