<svg xmlns="http://www.w3.org/2000/svg" fill="none" viewBox="0 0 48 48"><path fill="#EDEEEE" d="M24 47c12.703 0 23-10.297 23-23S36.703 1 24 1 1 11.297 1 24s10.297 23 23 23z"/><path fill="#fff" d="m26.325 8.26-3.894 7.26 3.32 9.487 11.457-4.065-3.32-9.48-7.563-3.202z"/><path fill="#8BD383" d="m31.082 15.128-4.186 1.483 2.493 7.109 4.185-1.484-2.492-7.108z"/><path fill="#008356" fill-rule="evenodd" d="m26.663 9.183-4.302 7.54a.605.605 0 0 1-.829.225.612.612 0 0 1-.226-.833l4.545-7.966a.605.605 0 0 1 .605-.3.61.61 0 0 1 .275.04l8.492 3.336a.617.617 0 0 1 .35.798.612.612 0 0 1-.795.348l-8.115-3.188z" clip-rule="evenodd"/><path fill="#8BD383" d="M28.576 14.336a1.126 1.126 0 0 1-1.427-.695 1.125 1.125 0 0 1 .306-1.21 1.113 1.113 0 0 1 1.233-.173 1.132 1.132 0 0 1-.112 2.077z"/><path fill="#008356" d="m29.946 5.945-1.16.411 1.378 3.933 1.161-.411-1.379-3.933z"/><path fill="#00639A" d="M23.876 27h-.995l-2.984 9h.995l2.984-9zm12.929 10v-1H19.897v1h16.908z"/><path fill="#0098C4" d="M36.07 31H23.094c-.248 0-.489-.08-.685-.23a1.112 1.112 0 0 1-.402-.593l-2.07-7.782a1.095 1.095 0 0 1 .192-.962 1.116 1.116 0 0 1 .888-.433h17.649a1.127 1.127 0 0 1 .92.468 1.1 1.1 0 0 1 .137 1.016l-2.587 7.781a1.107 1.107 0 0 1-.413.536 1.121 1.121 0 0 1-.651.199z"/><path fill="#0098C4" d="M21.887 26h-.995l-2.984-11.685.995-.315 2.984 12z"/><path fill="#00639A" d="M18.903 36.5c0-.494.146-.978.419-1.389a2.475 2.475 0 0 1 3.826-.379 2.504 2.504 0 0 1 .538 2.725 2.498 2.498 0 0 1-.916 1.122 2.477 2.477 0 0 1-3.139-.311 2.507 2.507 0 0 1-.728-1.768zm14.919 0c0-.494.145-.978.419-1.389a2.475 2.475 0 0 1 3.826-.379 2.504 2.504 0 0 1 .538 2.725 2.498 2.498 0 0 1-.915 1.122 2.477 2.477 0 0 1-3.14-.311 2.507 2.507 0 0 1-.728-1.768z"/><path fill="#fff" d="M15.096 20H1.823a.672.672 0 0 1-.313-.072.817.817 0 0 1-.266-.215 1.045 1.045 0 0 1-.18-.326A1.222 1.222 0 0 1 1 19c0-.133.023-.265.065-.387s.103-.233.179-.326a.817.817 0 0 1 .266-.215c.1-.05.206-.074.313-.072h13.273a.741.741 0 0 1 .577.29c.154.187.243.442.246.71 0 .133-.023.265-.065.387a1.045 1.045 0 0 1-.18.326.816.816 0 0 1-.265.215.672.672 0 0 1-.313.072zm.796 5h-4.92c-.27 0-.53-.105-.722-.293A.99.99 0 0 1 9.951 24a.99.99 0 0 1 .3-.707c.19-.188.45-.293.722-.293h4.92a1.035 1.035 0 0 1 .724.29.989.989 0 0 1 .22 1.094.989.989 0 0 1-.553.542c-.124.05-.257.075-.392.074zm1.987 5H9.98a1.038 1.038 0 0 1-.727-.29.991.991 0 0 1-.297-.71c0-.265.108-.52.3-.707.192-.188.452-.293.724-.293h7.898c.271 0 .532.105.724.293a.988.988 0 0 1 .002 1.416 1.015 1.015 0 0 1-.726.291z"/><path fill="#0098C4" d="M14.924 14.5a.5.5 0 0 1 .5-.5h3.479v1h-3.479a.5.5 0 0 1-.5-.5z"/></svg>