<svg xmlns="http://www.w3.org/2000/svg" fill="none" viewBox="0 0 48 48"><path fill="#EDEEEE" d="M24 47c12.703 0 23-10.297 23-23S36.703 1 24 1 1 11.297 1 24s10.297 23 23 23z"/><path fill="#007B56" d="M12.5 7h21.665c.737 0 1.335.641 1.335 1.433v31.134c0 .791-.598 1.433-1.335 1.433h-21.83C11.598 41 11 40.358 11 39.567V17l.165-8.567C11.165 7.64 11.763 7 12.5 7z"/><path fill="#16AF6F" d="M14.387 7h21.278C36.402 7 37 7.643 37 8.436v31.128c0 .793-.598 1.436-1.335 1.436h-21.33C13.598 41 13 40.357 13 39.564V8.436C13 8 13.65 7 14.387 7z"/><path fill="#007B56" d="M14.5 7h21.165C36.402 7 37 7.643 37 8.436v8.516H13l.113-8.516C13.113 8 13.763 7 14.5 7z" opacity=".5"/><path fill="#E0EFDB" d="M16.014 10H34l-.013 5H16l.014-5z"/><path fill="#fff" d="M19 19h-2a1 1 0 0 0-1 1v2a1 1 0 0 0 1 1h2a1 1 0 0 0 1-1v-2a1 1 0 0 0-1-1zm7 0h-2a1 1 0 0 0-1 1v2a1 1 0 0 0 1 1h2a1 1 0 0 0 1-1v-2a1 1 0 0 0-1-1zm7 0h-2a1 1 0 0 0-1 1v2a1 1 0 0 0 1 1h2a1 1 0 0 0 1-1v-2a1 1 0 0 0-1-1zm-14 7h-2a1 1 0 0 0-1 1v2a1 1 0 0 0 1 1h2a1 1 0 0 0 1-1v-2a1 1 0 0 0-1-1zm7 0h-2a1 1 0 0 0-1 1v2a1 1 0 0 0 1 1h2a1 1 0 0 0 1-1v-2a1 1 0 0 0-1-1zm7 0h-2a1 1 0 0 0-1 1v2a1 1 0 0 0 1 1h2a1 1 0 0 0 1-1v-2a1 1 0 0 0-1-1zm-14 8h-2a1 1 0 0 0-1 1v2a1 1 0 0 0 1 1h2a1 1 0 0 0 1-1v-2a1 1 0 0 0-1-1z"/><path fill="#F4682C" d="M32 34h-9a1 1 0 0 0-1 1v2a1 1 0 0 0 1 1h9a1 1 0 0 0 1-1v-2a1 1 0 0 0-1-1z"/><path fill="#FE9247" d="M33 34h-9a1 1 0 0 0-1 1v2a1 1 0 0 0 1 1h9a1 1 0 0 0 1-1v-2a1 1 0 0 0-1-1z"/></svg>