<svg xmlns="http://www.w3.org/2000/svg" fill="none" viewBox="0 0 48 48"><path fill="#EDEEEE" d="M24 47c12.703 0 23-10.297 23-23S36.703 1 24 1 1 11.297 1 24s10.297 23 23 23z"/><path fill="#0098C4" fill-rule="evenodd" d="M38.999 41.316C34.972 44.86 29.73 47 24 47c-6.46 0-12.3-2.721-16.477-7.104.224-2.599.644-4.974 1.394-6.541 2.215-4.624 11.72-5.734 11.72-5.734 13.37-.369 17.715 6.31 18.22 10.335.112.9.15 2.076.142 3.36z" clip-rule="evenodd"/><path fill="#FDBA9E" d="M19 28c.104.809.579 1.774.917 2.514.623 1.22 1.884 3.564 5.381 3.453 2.2-.067 5.044-1.226 3.702-5.467-.055-.172-7.5-1.5-10-.5z"/><path fill="#FDBA9E" d="M21.543 22.53s-.59 3.963-2.084 5.958l8.057 2.575S28 27.5 28 24.5l-6.457-1.97z"/><path fill="#F49777" d="M28 25.204V29c-4.8-.857-5.733-4.286-6-6l6 2.204z"/><path fill="#FDBA9E" d="M19.4 13.128s1.093 5.929 2.38 10.273c2.875 2.554 7.496 3.148 9.473 1.344 2.954-2.71.46-7.832 1.301-12.509.798-4.379-11.795-6.862-13.153.892z"/><path fill="#00639A" d="M21.543 22.594a9.94 9.94 0 0 1 .553-3.495c2.408-.552 1.086-4.613 1.718-5.08.834-.615 1.438.184 3.666.793a8.541 8.541 0 0 0 6.066-.319c2.156-1.011 2.271-3.664 1.517-4.952a2.86 2.86 0 0 0-1.089-.972 2.913 2.913 0 0 0-1.434-.316c-1.474 0-1.912-.269-2.58-.927-.978-1.025-3.149-2.299-6.793-1.782-1.66.233-4.456 1.74-4.312 4.45.079 1.613-2.157.566-2.768 3.877-.309 1.747.166 3.976 2.768 5.985a9.172 9.172 0 0 1 2.688 2.738z"/><path fill="#FDBA9E" d="M20.917 17.083c.87-.234 1.438.544 1.718 1.591.28 1.048-.079 2.031-.762 2.2-.683.17-1.437-.544-1.71-1.591-.273-1.047-.065-1.988.754-2.2z"/><path fill="#10A363" d="M38 47a9 9 0 1 0 0-18 9 9 0 0 0 0 18z"/><path fill="#FAFBFB" fill-rule="evenodd" d="M41.692 38.677a.995.995 0 0 1-.065.071l-4.97 4.961a.976.976 0 0 1-1.388 0 .984.984 0 0 1-.182-1.084.984.984 0 0 1 .223-.313L39.594 38l-4.242-4.312a.984.984 0 0 1-.214-1.077.984.984 0 0 1 .214-.32.977.977 0 0 1 1.07-.215c.12.05.228.123.319.215l4.97 4.96a.992.992 0 0 1 .214 1.084.992.992 0 0 1-.233.342z" clip-rule="evenodd"/></svg>